<?xml version="1.0" encoding="utf-8"?>
<!-- Generator: Adobe Illustrator 22.0.1, SVG Export Plug-In . SVG Version: 6.00 Build 0)  -->
<svg version="1.1" id="Layer_3" xmlns="http://www.w3.org/2000/svg" xmlns:xlink="http://www.w3.org/1999/xlink" x="0px" y="0px"
	 viewBox="0 0 500 500" style="enable-background:new 0 0 500 500;" xml:space="preserve">
<style type="text/css">
	.st0{fill:#FFFFFF;}
	.st1{fill:none;stroke:#000000;stroke-width:6;stroke-miterlimit:10;}
</style>
<g>
	<path class="st0" d="M16,90.3c22.4-2.5,110.8-11.8,171.8-11.8c47.1,0,55,5.6,56.2,6.9v334.5c-10.8-4.7-29.3-7-56.2-7
		c-60.3,0-146.9,11.6-171.8,15.1V90.3z"/>
	<path d="M187.8,84.5c33.4,0,45.9,2.9,50.2,4.4v322.6c-13.9-3.8-32.2-4.6-50.2-4.6c-56.8,0-134.5,9.8-165.8,14.2V95.6
		C50.7,92.6,131.2,84.5,187.8,84.5L187.8,84.5 M187.8,72.5C116.7,72.5,10,84.9,10,84.9v350c0,0,106.7-16,177.8-16
		c35.6,0,62.2,4,62.2,16c0-30.5,0-324.7,0-350C250,75.6,223.3,72.5,187.8,72.5L187.8,72.5z M250,434.9c0,1.7,0,2.5,0,2.5
		S250,436.6,250,434.9L250,434.9z"/>
</g>
<g>
	<path class="st0" d="M484,428c-24.8-3.5-111.4-15.1-171.8-15.1c-27,0-45.4,2.2-56.2,7V85.3c1.2-1.3,9.1-6.9,56.2-6.9
		c61,0,149.4,9.3,171.8,11.8V428z"/>
	<path d="M312.2,84.5c56.6,0,137.1,8.1,165.8,11.2v325.4c-31.3-4.3-109-14.2-165.8-14.2c-18.1,0-36.3,0.8-50.2,4.6V88.9
		C266.3,87.3,278.8,84.5,312.2,84.5 M312.2,72.5c-35.6,0-62.2,3.1-62.2,12.4c0,26.7,0,352.5,0,352.5s0-0.8,0-2.5
		c0-12,26.7-16,62.2-16c71.1,0,177.8,16,177.8,16v-350C490,84.9,383.3,72.5,312.2,72.5L312.2,72.5z"/>
</g>
<g>
	<path class="st1" d="M35.4,143.8c90.4-32.8,182.7-9.6,182.7-9.6"/>
</g>
<g>
	<path class="st1" d="M35.4,223.8c90.4-32.8,182.7-9.6,182.7-9.6"/>
</g>
<g>
	<path class="st1" d="M35.4,303.8c90.4-32.8,182.7-9.6,182.7-9.6"/>
</g>
<g>
	<path class="st1" d="M35.4,383.8c90.4-32.8,182.7-9.6,182.7-9.6"/>
</g>
<g>
	<path class="st1" d="M284.6,129.8c93.3-23.1,182.7,9.6,182.7,9.6"/>
</g>
<g>
	<path class="st1" d="M284.2,209.4c93.3-23.1,182.7,9.6,182.7,9.6"/>
</g>
<g>
	<path class="st1" d="M283.8,289c93.3-23.1,182.7,9.6,182.7,9.6"/>
</g>
<g>
	<path class="st1" d="M283.5,368.5c93.3-23.1,182.7,9.6,182.7,9.6"/>
</g>
<g>
	<path d="M250,431c-10.6,0-17.2-2.1-19-3.4V423h38v4.6C267.2,428.9,260.6,431,250,431z"/>
	<path d="M275,417h-50c0,0,0,5.7,0,11.4c0,5.7,12.5,8.6,25,8.6s25-2.9,25-8.6C275,417,275,417,275,417L275,417z"/>
</g>
</svg>
