<?xml version="1.0" encoding="utf-8"?>
<!-- Generator: Adobe Illustrator 22.0.1, SVG Export Plug-In . SVG Version: 6.00 Build 0)  -->
<svg version="1.1" id="_x31_" xmlns="http://www.w3.org/2000/svg" xmlns:xlink="http://www.w3.org/1999/xlink" x="0px" y="0px"
	 viewBox="0 0 500 500" style="enable-background:new 0 0 500 500;" xml:space="preserve">
<g>
	<path d="M337.8,21c37.6,0,72.9,14.6,99.5,41.2c26.6,26.6,41.2,61.9,41.2,99.5s-14.6,72.9-41.2,99.5c-26.6,26.6-61.9,41.2-99.5,41.2
		c-37.6,0-72.9-14.6-99.5-41.2c-26.6-26.6-41.2-61.9-41.2-99.5s14.6-72.9,41.2-99.5C264.9,35.6,300.2,21,337.8,21 M337.8,6
		C298,6,258.1,21.2,227.8,51.6c-60.8,60.8-60.8,159.3,0,220.1c30.4,30.4,70.2,45.6,110.1,45.6s79.7-15.2,110.1-45.6
		c60.8-60.8,60.8-159.3,0-220.1C417.5,21.2,377.6,6,337.8,6L337.8,6z"/>
</g>
<g>
	<path d="M32.6,493.8c-5.3,0-10.2-2-13.9-5.8l-7-7c-7.7-7.7-7.7-20.1,0-27.8l187.9-187.9l34.8,34.8L46.5,488.1
		C42.8,491.8,37.8,493.8,32.6,493.8z"/>
	<path d="M199.6,266.1l34.1,34.1L46.1,487.7c-3.6,3.6-8.4,5.6-13.5,5.6c-5.1,0-9.9-2-13.5-5.6l-7-7c-7.5-7.5-7.5-19.6,0-27.1
		L199.6,266.1 M199.6,264.7L11.3,452.9c-7.9,7.9-7.9,20.6,0,28.5l7,7c3.9,3.9,9.1,5.9,14.3,5.9s10.3-2,14.3-5.9l188.2-188.2
		L199.6,264.7L199.6,264.7z"/>
</g>
<g>
	<rect x="215" y="256.3" transform="matrix(0.7071 -0.7071 0.7071 0.7071 -129.3859 238.9863)" width="17.7" height="38.8"/>
	<path d="M216.3,256.4l26.8,26.8L231.3,295l-26.8-26.8L216.3,256.4 M216.3,255l-13.2,13.2l28.2,28.2l13.2-13.2L216.3,255L216.3,255z
		"/>
</g>
</svg>
