<?xml version="1.0" encoding="utf-8"?>
<!-- Generator: Adobe Illustrator 22.0.1, SVG Export Plug-In . SVG Version: 6.00 Build 0)  -->
<svg version="1.1" xmlns="http://www.w3.org/2000/svg" xmlns:xlink="http://www.w3.org/1999/xlink" x="0px" y="0px"
	 viewBox="0 0 500 500" style="enable-background:new 0 0 500 500;" xml:space="preserve">
<style type="text/css">
	.st0{fill:none;stroke:#000000;stroke-width:10;stroke-miterlimit:10;}
</style>
<g id="Layer_1">
	<g>
		<path d="M250,60c25.7,0,50.5,5,74,14.9c22.6,9.6,42.9,23.3,60.4,40.7c17.5,17.5,31.2,37.8,40.7,60.4c9.9,23.4,14.9,48.3,14.9,74
			s-5,50.5-14.9,74c-9.6,22.6-23.3,42.9-40.7,60.4c-17.5,17.5-37.8,31.2-60.4,40.7c-23.4,9.9-48.3,14.9-74,14.9s-50.5-5-74-14.9
			c-22.6-9.6-42.9-23.3-60.4-40.7c-17.5-17.5-31.2-37.8-40.7-60.4C65,300.5,60,275.7,60,250s5-50.5,14.9-74
			c9.6-22.6,23.3-42.9,40.7-60.4c17.5-17.5,37.8-31.2,60.4-40.7C199.5,65,224.3,60,250,60 M250,50C139.5,50,50,139.5,50,250
			s89.5,200,200,200s200-89.5,200-200S360.5,50,250,50L250,50z"/>
	</g>
</g>
<g id="Layer_2">
	<g>
		<line class="st0" x1="250" y1="55" x2="250" y2="445"/>
	</g>
	<line class="st0" x1="50" y1="250" x2="450" y2="250"/>
	<g>
		<path class="st0" d="M250,55c200,195,0,390,0,390"/>
	</g>
	<g>
		<path class="st0" d="M250,55c-200,195,0,390,0,390"/>
	</g>
	<path class="st0" d="M80,150c170,44,340,0,340,0"/>
	<path class="st0" d="M80,350c170-44,340,0,340,0"/>
</g>
</svg>
