<?xml version="1.0" encoding="utf-8"?>
<!-- Generator: Adobe Illustrator 22.0.1, SVG Export Plug-In . SVG Version: 6.00 Build 0)  -->
<svg version="1.1" id="Layer_1" xmlns="http://www.w3.org/2000/svg" xmlns:xlink="http://www.w3.org/1999/xlink" x="0px" y="0px"
	 viewBox="0 0 500 500" style="enable-background:new 0 0 500 500;" xml:space="preserve">
<style type="text/css">
	.st0{fill:#FFFFFF;stroke:#000000;stroke-width:3;stroke-miterlimit:10;}
	.st1{fill:none;stroke:#000000;stroke-miterlimit:10;}
	.st2{stroke:#000000;stroke-width:10;stroke-miterlimit:10;}
	.st3{fill:none;stroke:#000000;stroke-width:10;stroke-miterlimit:10;}
</style>
<path class="st0" d="M365,490H135c-19.3,0-35-15.7-35-35V45c0-19.3,15.7-35,35-35h115l25.6,98.4c4.3,16.5,19.9,27.5,36.9,26.1
	L400,127v123v205C400,474.3,384.3,490,365,490z"/>
<line class="st1" x1="250.9" y1="8.9" x2="401.1" y2="125.8"/>
<line class="st2" x1="125" y1="177.4" x2="375" y2="177.4"/>
<line class="st3" x1="127.2" y1="237.7" x2="377.2" y2="237.7"/>
<line class="st3" x1="125" y1="297.9" x2="375" y2="297.9"/>
<line class="st3" x1="125" y1="358.2" x2="375" y2="358.2"/>
<line class="st3" x1="127.2" y1="418.5" x2="377.2" y2="418.5"/>
<line class="st3" x1="127.2" y1="104.5" x2="252.2" y2="104.5"/>
</svg>
