<?xml version="1.0" encoding="utf-8"?>
<!-- Generator: Adobe Illustrator 24.2.0, SVG Export Plug-In . SVG Version: 6.00 Build 0)  -->
<svg version="1.1" xmlns="http://www.w3.org/2000/svg" xmlns:xlink="http://www.w3.org/1999/xlink" x="0px" y="0px"
	 viewBox="0 0 798.67 919.84" style="enable-background:new 0 0 798.67 919.84;" xml:space="preserve">
<style type="text/css">
	.st0{fill:#595959;stroke:#000000;stroke-width:40;stroke-miterlimit:10;}
	.st1{display:none;}
	.st2{display:inline;opacity:0.29;fill:#595959;stroke:#000000;stroke-width:40;stroke-miterlimit:10;}
	.st3{display:inline;opacity:0.29;fill:none;stroke:#000000;stroke-width:40;stroke-miterlimit:10;}
	.st4{fill:#FF0000;stroke:#FF0000;stroke-width:40;stroke-miterlimit:10;}
	.st5{fill:#FF0000;}
</style>
<g id="Layer_3">
	<path class="st0" d="M341.79,297.72c-0.02-11.36-1.33-66.55-45.39-111.99c-46.18-47.63-104.73-48.86-115.29-48.9h436.44
		c10.98,0.01,67.38,1.18,113.27,46.55c46.73,46.2,47.83,103.9,47.84,114.56c0,100.12,0,200.25,0,300.37c0,1.35-0.17,7.58-5.11,12.76
		c-5.34,5.61-12.21,5.75-13.41,5.75c-139.45,0-278.91,0-418.36,0V297.72z"/>
</g>
<g id="Layer_1" class="st1">
	<path class="st2" d="M760.15,616.83H38.52c-10.23,0-18.52-8.29-18.52-18.52V297.94c0-88.98,72.13-161.11,161.11-161.11h436.44
		c88.98,0,161.11,72.13,161.11,161.11v300.37C778.67,608.54,770.38,616.83,760.15,616.83z"/>
	<path class="st3" d="M180.89,136.83L180.89,136.83C92.03,136.83,20,208.86,20,297.72v300.22c0,10.43,8.46,18.89,18.89,18.89h302.9
		V297.72C341.79,208.86,269.75,136.83,180.89,136.83z"/>
</g>
<g id="Layer_2">
	<line class="st4" x1="482.07" y1="302.31" x2="483.34" y2="0.08"/>
	<circle class="st5" cx="482.7" cy="301.57" r="37.93"/>
	<rect x="483.34" y="0.08" class="st5" width="96.11" height="79.63"/>
</g>
</svg>
