<svg xmlns="http://www.w3.org/2000/svg" viewBox="0 0 1824.16 1739.8"><defs><style>.cls-1,.cls-2,.cls-3{fill:#fff;}.cls-2,.cls-3{stroke:#fff;stroke-miterlimit:10;}.cls-2{stroke-width:7px;}.cls-3{stroke-width:12px;}</style></defs><title>White_1-SVG</title><g id="Layer_2" data-name="Layer 2"><g id="Layer_1-2" data-name="Layer 1"><path class="cls-1" d="M450.35,199.86,428.58,368.3A64.68,64.68,0,0,1,421.83,390a68.57,68.57,0,0,1-13.14,17.75,60.14,60.14,0,0,1-17.64,12A49.41,49.41,0,0,1,370.79,424H336.63a43.14,43.14,0,0,1-19.32-4.34,40.41,40.41,0,0,1-14.64-12A51.7,51.7,0,0,1,294,390a54.07,54.07,0,0,1-1.32-21.67l21.77-168.44A68.32,68.32,0,0,1,334.38,160a60.56,60.56,0,0,1,17.64-12,49.38,49.38,0,0,1,20.27-4.33h34.15a43.24,43.24,0,0,1,19.33,4.33,40.78,40.78,0,0,1,14.63,12A51.83,51.83,0,0,1,449,178,55.49,55.49,0,0,1,450.35,199.86Zm-72.81,168,21.77-168H365.16l-21.77,168Z"/><path class="cls-1" d="M632.74,424h-51l9.75-79.26-24.39-75.14L547.55,424H496.88l35.65-280.31H583.2l24.39,75.13,9.76-75.13h51Z"/><path class="cls-1" d="M1026.44,424h-51l28.52-224.17H964.14l7.13-56.14h129.85L1094,199.86h-39Z"/><path class="cls-1" d="M1274.13,424h-51l14.26-111.88h-33.77L1189.32,424h-51l35.66-280.31h51L1210.71,256h33.77l14.26-112.29h51Z"/><path class="cls-1" d="M1469.66,424h-120.1l35.66-280.31h120.09l-7.13,56.14h-69.06L1422,255.6h69.06l-7.13,56.14h-69.06l-7.13,56.14h69.06Z"/><path class="cls-1" d="M491.84,631.11,463.15,850.84q-6.63,52.21-39.18,94.69T345.06,1005L408,1290.3h-160l-57.39-256.15-32,256.15H8.45L113.3,466H362.72q30.88,0,56.83,12.75a119.85,119.85,0,0,1,43,35.2q17.1,22.49,25.39,52.82T491.84,631.11ZM313.05,850.84l28.7-219.73H242.42L213.73,850.84Z"/><path class="cls-1" d="M715.44,1290.3H565.34L670.19,466H820.28Z"/><path class="cls-1" d="M1311.34,1063.29l-7.73,61.91a189.25,189.25,0,0,1-20.41,64.34,208,208,0,0,1-39.18,52.81,177.69,177.69,0,0,1-51.87,35.21,145.33,145.33,0,0,1-59.6,12.74H1032.12q-30.91,0-56.84-12.74a124.39,124.39,0,0,1-43.59-35.21q-17.67-22.45-25.38-52.81T903,1125.2l13.25-110.47h150.09l-13.24,110.47h100.43l6.62-54.63,1.1-7.28L982.46,804.71q-33.12-47.36-24.28-110.48l7.72-63.12a195.86,195.86,0,0,1,19.87-64.34A198,198,0,0,1,1024.39,514a175.73,175.73,0,0,1,52.43-35.2A149,149,0,0,1,1137,466H1237.4q30.88,0,56.83,12.75a119.85,119.85,0,0,1,43,35.2q17.1,22.49,25.39,52.82t3.86,64.34l-14.35,109.25H1202.08l14.35-109.25H1116l-7.73,63.12L1286,954Q1318,1000.19,1311.34,1063.29Z"/><path class="cls-1" d="M1700.78,1290.3H1347.62L1452.46,466h353.16l-21,165.11H1581.59l-21,163.88h203.07l-21,165.11H1539.65l-21,165.1h203.07Z"/><rect class="cls-2" x="361.46" y="1367.63" width="146.75" height="20.65"/><rect class="cls-2" x="1304.64" y="1367.63" width="146.75" height="20.65"/><path class="cls-1" d="M765.12,1361.76c0-9.84,21.27-17.82,47.51-17.82s47.52,8,47.52,17.82-21.27,17.82-47.52,17.82S765.12,1371.59,765.12,1361.76Zm0,15.25v20.38c0,9.84,21.27,17.82,47.51,17.82s47.52-8,47.52-17.82V1377C839.1,1392.29,786.18,1392.31,765.12,1377Z"/><path class="cls-1" d="M1210.2,1399.6l5.35-2.58a40.49,40.49,0,0,0,8.18,11.31,45.93,45.93,0,0,0,.06-57.45,40,40,0,0,0-8.09,11l-5.33-2.61a45.79,45.79,0,0,1,9.43-12.81,45.93,45.93,0,0,0-63.91,0,45.69,45.69,0,0,1,9.41,12.77l-5.32,2.62a39.88,39.88,0,0,0-8.08-11,45.93,45.93,0,0,0,0,57.45,40,40,0,0,0,8.23-11.32l5.34,2.58a45.74,45.74,0,0,1-9.56,13.12,45.88,45.88,0,0,0,63.83,0A46.25,46.25,0,0,1,1210.2,1399.6Zm-42.37-5.94-5.66-1.82a40.32,40.32,0,0,0-.11-24.87l5.64-1.85a46.33,46.33,0,0,1,.13,28.54Zm40.15-28.47,5.64,1.86a40.39,40.39,0,0,0-.11,24.87l-5.66,1.82a46.29,46.29,0,0,1,.13-28.55Z"/><path class="cls-1" d="M618.41,1334a45.78,45.78,0,0,0-22.68,10l14.36,14.36A41.34,41.34,0,0,0,618.41,1334Zm6.63,39.3,29.3-29.31a45.82,45.82,0,0,0-27-10.41c-.23,11.86-4,22.69-10.9,31.12Zm-35.62-23a45.78,45.78,0,0,0-10,22.68,41.29,41.29,0,0,0,24.35-8.32Zm50.52,37.9c8.41-6.89,19.25-10.65,31.13-10.9a45.9,45.9,0,0,0-10.42-27l-29.3,29.31,8.59,8.59Zm-14.9-2.28-29.31,29.3a46,46,0,0,0,27,10.42c.25-11.88,4-22.72,10.9-31.13Zm35.61,23a45.69,45.69,0,0,0,10-22.68,41.51,41.51,0,0,0-24.35,8.32ZM610.13,1371c-8.43,6.91-19.26,10.69-31.12,10.9a45.82,45.82,0,0,0,10.41,27l29.31-29.3Zm21.53,54.2a45.69,45.69,0,0,0,22.68-10L640,1400.83a41.56,41.56,0,0,0-8.32,24.35Z"/><path class="cls-1" d="M1043.57,1343.25a9.79,9.79,0,0,0-6.92-6.94,82.76,82.76,0,0,0-19.45-2.76l29.06,29.1A83.47,83.47,0,0,0,1043.57,1343.25Zm-86.68,72.65a9.8,9.8,0,0,0,6.92,6.94,83.23,83.23,0,0,0,19.46,2.77L954.2,1396.5a83.47,83.47,0,0,0,2.69,19.4ZM955,1384.66l40.13,40.2c24.59-3.6,46.18-22,50.39-50.37l-40.15-40.2C980.76,1337.89,959.17,1356.32,955,1384.66Zm58.89-22.94a1.5,1.5,0,0,1,2.1,0l2.1,2.1a1.5,1.5,0,0,1,0,2.1l-5.25,5.25,5.25,5.25a1.5,1.5,0,0,1,0,2.1l-2.1,2.1a1.5,1.5,0,0,1-2.1,0l-5.25-5.26-4.19,4.22,5.25,5.25a1.5,1.5,0,0,1,0,2.1l-2.1,2.09a1.48,1.48,0,0,1-2.1,0l-5.25-5.25L996,1388l5.25,5.25a1.5,1.5,0,0,1,0,2.1l-2.1,2.09a1.48,1.48,0,0,1-2.1,0l-5.25-5.25-5.25,5.25a1.48,1.48,0,0,1-2.1,0l-2.1-2.09a1.5,1.5,0,0,1,0-2.1l5.26-5.25-5.26-5.24a1.5,1.5,0,0,1,0-2.1l2.1-2.09a1.48,1.48,0,0,1,2.1,0l5.25,5.25,4.2-4.2-5.26-5.25a1.5,1.5,0,0,1,0-2.1l2.1-2.09a1.48,1.48,0,0,1,2.1,0l5.25,5.25,4.2-4.2-5.26-5.25a1.5,1.5,0,0,1,0-2.1l2.1-2.09a1.48,1.48,0,0,1,2.1,0l5.25,5.25,5.25-5.29Z"/><path class="cls-3" d="M102.74,71.52c-31-21.3-82.67-57.22-82.67-57.22L13,6.06l1784.59.29,7.43-.1-11.51,8.2s-57.84,40.24-87,60a16.81,16.81,0,0,0-7.36,13.92l.15,331.54H1646.8V96.63c-6.39-1.89-1472.15-2.25-1481.36-.4v10.28s1,176.78,1.27,313.41H112.89V94.07a19.91,19.91,0,0,0-.61-4.86l-1.6-6.29A19.77,19.77,0,0,0,102.74,71.52Z"/><path class="cls-3" d="M1699.35,1335.1c0,83.19.62-24.64.62,61-2.73,1.23-5.3,2.46-7.93,3.58q-388.32,164.7-776.63,329.44c-2.78,1.18-5.26,3.07-7.88,4.64l-1.62,0c-3-1.61-5.83-3.49-8.92-4.8Q509.06,1564.35,121.1,1399.81c-2.65-1.12-5.28-2.28-8.21-3.55v-59.93h52.55v25.5c9.49,4.1,18.13,7.88,26.81,11.59q352.92,151,705.77,302.07c6.18,2.65,11.08,2.27,17-.25q361.91-155,723.9-309.77c2.41-1,4.78-2.17,7.91-3.6V1335.1Z"/><path class="cls-1" d="M820.57,179.61h5.54c2.11.36,4.27.61,6.34,1.09,16.85,4,27.38,19.14,25.62,36.91-.38,3.82-.91,7.66-1.38,11.48a8,8,0,0,1-.21.91H824.42l-.88,7.17h32.09l-.88,7.15H822.68l-.89,7.23h32.1l-.88,7.13h-32.1l-.88,7.19H852.1l-.88,7.15H819.13l-.89,7.2h32.13c0,.36,0,.57,0,.78q-1,8.5-2.09,17a40.71,40.71,0,0,1-2.51,10c-8.23,20.93-30.31,33.18-50.93,28.27-16.52-3.93-27.32-19.51-25.52-37,.62-6.09,1.45-12.19,2.19-18.29,0-.24.11-.48.18-.82h32.1l.88-7.19H772.53l.88-7.19h32.08l.88-7.16H774.28l.88-7.16h32.1l.89-7.19H776l.88-7.16H809l.88-7.2H777.75c.49-4,.9-8,1.49-11.9a48.5,48.5,0,0,1,1.46-6.65c4.49-15,18.08-27.5,33.48-30.71C816.3,180.23,818.44,180,820.57,179.61Z"/><path class="cls-1" d="M756.24,287.7h7.2c0,.39-.1.8-.14,1.21-.52,4.72-1.27,9.45-1.48,14.14a39.39,39.39,0,0,0,7.61,25.72,38.19,38.19,0,0,0,26.46,15.83c17,2.35,32.13-3.23,45-16.6a50.67,50.67,0,0,0,14-29.43c.45-3.61.89-7.23,1.35-11,1.14,0,2.23,0,3.31,0,1.45,0,2.88.09,4.32.13l-1.67,13.62c-.11.35-.23.69-.32,1-.5,2-.87,4-1.49,6C854,329,835.89,345.69,814.8,350.49c-2,.46-4,.81-6.09,1.23l-2.62,21.34,1.16.14c4.45.58,9,1,13.36,1.79a48.91,48.91,0,0,1,16,5.55,13.76,13.76,0,0,1,4.87,4.25,4.23,4.23,0,0,1,.8,3.12l-1.53.22H755.61l-1.62-.29a13.27,13.27,0,0,1,2-3,28.15,28.15,0,0,1,5.2-3.88c6.78-3.71,14-5.41,21.32-6.61,3-.5,6.12-.81,9.21-1.21l2.65-21.54c-.33-.08-.59-.15-.86-.2s-.63-.09-.93-.14c-11.87-2.29-21.43-8-28.53-17.22a45.46,45.46,0,0,1-9.39-26.27c-.09-2.13,0-4.27-.05-6.41Z"/></g></g></svg>